name Walk8.mot
datacolumns 19
datarows 22
range 2.25000000 2.35500000
endheader

                time	   L_ground_force_vx	   L_ground_force_vy	   L_ground_force_vz	   L_ground_force_px	   L_ground_force_py	   L_ground_force_pz	   R_ground_force_vx	   R_ground_force_vy	   R_ground_force_vz	   R_ground_force_px	   R_ground_force_py	   R_ground_force_pz	   L_ground_torque_x	   L_ground_torque_y	   L_ground_torque_z	   R_ground_torque_x	   R_ground_torque_y	   R_ground_torque_z	
          2.25000000	          0.02868009	          0.10200952	         -0.00768909	         -0.00005371	          0.00000000	         -0.00005704	        -29.05134698	        867.49739327	        -53.73230925	          0.57122354	          0.00000000	          0.14850004	          0.00000000	          0.00034663	          0.00000000	          0.00000000	          1.01083946	          0.00000000	
          2.25500000	          0.01579182	          0.07111491	         -0.00568423	         -0.00004424	          0.00000000	         -0.00005409	        -26.97417414	        856.87001697	        -52.75505663	          0.57236528	          0.00000000	          0.14879407	          0.00000000	          0.00021250	          0.00000000	          0.00000000	          0.71396682	          0.00000000	
          2.26000000	          0.00627788	          0.04567846	         -0.00394899	         -0.00003466	          0.00000000	         -0.00004792	        -24.99466099	        846.89996251	        -51.74622410	          0.57350558	          0.00000000	          0.14907365	          0.00000000	          0.00010969	          0.00000000	          0.00000000	          0.43196718	          0.00000000	
          2.26500000	         -0.00031973	          0.02575395	         -0.00252390	         -0.00002578	          0.00000000	         -0.00004017	        -23.09888654	        837.64149313	        -50.74641119	          0.57464461	          0.00000000	          0.14934221	          0.00000000	          0.00003508	          0.00000000	          0.00000000	          0.16135104	          0.00000000	
          2.27000000	         -0.00452536	          0.01093992	         -0.00141041	         -0.00001805	          0.00000000	         -0.00003203	        -21.27280678	        829.16227771	        -49.79419913	          0.57578240	          0.00000000	          0.14960337	          0.00000000	         -0.00001554	          0.00000000	          0.00000000	         -0.10160414	          0.00000000	
          2.27500000	         -0.00686445	          0.00057475	         -0.00058480	         -0.00001166	          0.00000000	         -0.00002427	        -19.50248108	        821.53152905	        -48.92412268	          0.57691955	          0.00000000	          0.14986016	          0.00000000	         -0.00004677	          0.00000000	          0.00000000	         -0.36025618	          0.00000000	
          2.28000000	         -0.00782157	         -0.00611768	         -0.00000911	         -0.00000664	          0.00000000	         -0.00001738	        -17.77538997	        814.81184825	        -48.16472855	          0.57805712	          0.00000000	          0.15011431	          0.00000000	         -0.00006310	          0.00000000	          0.00000000	         -0.61731077	          0.00000000	
          2.28500000	         -0.00781676	         -0.00992558	          0.00036080	         -0.00000290	          0.00000000	         -0.00001158	        -16.08169011	        809.05442135	        -47.53745389	          0.57919658	          0.00000000	          0.15036682	          0.00000000	         -0.00006858	          0.00000000	          0.00000000	         -0.87514697	          0.00000000	
          2.29000000	         -0.00719546	         -0.01158252	          0.00056947	         -0.00000027	          0.00000000	         -0.00000695	        -14.41496643	        804.29791396	        -47.05493363	          0.58034002	          0.00000000	          0.15061861	          0.00000000	         -0.00006668	          0.00000000	          0.00000000	         -1.13537015	          0.00000000	
          2.29500000	         -0.00622796	         -0.01172904	          0.00065826	          0.00000144	          0.00000000	         -0.00000343	        -12.77197399	        800.56835156	        -46.72078310	          0.58149154	          0.00000000	          0.15087044	          0.00000000	         -0.00006018	          0.00000000	          0.00000000	         -1.39863536	          0.00000000	
          2.30000000	         -0.00511497	         -0.01089538	          0.00066313	          0.00000242	          0.00000000	         -0.00000090	        -11.15117184	        797.87711517	        -46.53062178	          0.58265639	          0.00000000	          0.15112255	          0.00000000	         -0.00005125	          0.00000000	          0.00000000	         -1.66494295	          0.00000000	
          2.30500000	         -0.00399669	         -0.00949907	          0.00061381	          0.00000286	          0.00000000	          0.00000079	         -9.55180318	        796.22146614	        -46.47271549	          0.58383985	          0.00000000	          0.15137505	          0.00000000	         -0.00004147	          0.00000000	          0.00000000	         -1.93409380	          0.00000000	
          2.31000000	         -0.00296348	         -0.00785239	          0.00053364	          0.00000291	          0.00000000	          0.00000181	         -7.97349023	        795.58740456	        -46.52976241	          0.58504851	          0.00000000	          0.15162730	          0.00000000	         -0.00003192	          0.00000000	          0.00000000	         -2.20584983	          0.00000000	
          2.31500000	         -0.00206652	         -0.00617537	          0.00044002	          0.00000272	          0.00000000	          0.00000233	         -6.41646968	        795.95677499	        -46.68180058	          0.58628900	          0.00000000	          0.15187891	          0.00000000	         -0.00002327	          0.00000000	          0.00000000	         -2.48004504	          0.00000000	
          2.32000000	         -0.00132788	         -0.00461154	          0.00034518	          0.00000238	          0.00000000	          0.00000247	         -4.88179168	        797.30924995	        -46.90930555	          0.58756615	          0.00000000	          0.15213031	          0.00000000	         -0.00001589	          0.00000000	          0.00000000	         -2.75633293	          0.00000000	
          2.32500000	         -0.00074919	         -0.00324396	          0.00025707	          0.00000197	          0.00000000	          0.00000237	         -3.37165728	        799.61821899	        -47.19683467	          0.58888286	          0.00000000	          0.15238140	          0.00000000	         -0.00000989	          0.00000000	          0.00000000	         -3.03441079	          0.00000000	
          2.33000000	         -0.00031883	         -0.00211041	          0.00018023	          0.00000156	          0.00000000	          0.00000212	         -1.88870926	        802.85144038	        -47.53463774	          0.59024088	          0.00000000	          0.15263190	          0.00000000	         -0.00000527	          0.00000000	          0.00000000	         -3.31441095	          0.00000000	
          2.33500000	         -0.00001763	         -0.00121657	          0.00011670	          0.00000117	          0.00000000	          0.00000179	         -0.43536873	        806.97218533	        -47.91784375	          0.59164067	          0.00000000	          0.15288123	          0.00000000	         -0.00000188	          0.00000000	          0.00000000	         -3.59655083	          0.00000000	
          2.34000000	          0.00017691	         -0.00054716	          0.00006673	          0.00000082	          0.00000000	          0.00000143	          0.98615811	        811.94002356	        -48.34394518	          0.59308107	          0.00000000	          0.15312857	          0.00000000	          0.00000043	          0.00000000	          0.00000000	         -3.88067728	          0.00000000	
          2.34500000	          0.00028768	         -0.00007460	          0.00002941	          0.00000054	          0.00000000	          0.00000109	          2.37463123	        817.71179973	        -48.81144749	          0.59456059	          0.00000000	          0.15337415	          0.00000000	          0.00000189	          0.00000000	          0.00000000	         -4.16659088	          0.00000000	
          2.35000000	          0.00033596	          0.00023434	          0.00000315	          0.00000031	          0.00000000	          0.00000079	          3.73153158	        824.24006241	        -49.31945307	          0.59607814	          0.00000000	          0.15361883	          0.00000000	          0.00000267	          0.00000000	          0.00000000	         -4.45431001	          0.00000000	
          2.35500000	          0.00034035	          0.00041393	         -0.00001394	          0.00000014	          0.00000000	          0.00000053	          5.06195325	        831.47046291	        -49.86780244	          0.59763238	          0.00000000	          0.15386340	          0.00000000	          0.00000296	          0.00000000	          0.00000000	         -4.74400133	          0.00000000	
